<svg xmlns="http://www.w3.org/2000/svg" width="16" height="16" viewBox="0 0 16 16">
  <path fill="none" stroke="context-fill" stroke-width="1.4" stroke-linecap="round" stroke-linejoin="round" d="M6.9 1.8h2.2l.35 1.55c.35.12.68.26.99.44l1.34-.85 1.56 1.56-.85 1.34c.18.31.32.64.44.99l1.55.35v2.2l-1.55.35c-.12.35-.26.68-.44.99l.85 1.34-1.56 1.56-1.34-.85c-.31.18-.64.32-.99.44l-.35 1.55H6.9l-.35-1.55a5.6 5.6 0 0 1-.99-.44l-1.34.85-1.56-1.56.85-1.34a5.6 5.6 0 0 1-.44-.99l-1.55-.35v-2.2l1.55-.35c.12-.35.26-.68.44-.99L2.66 4.5l1.56-1.56 1.34.85c.31-.18.64-.32.99-.44z"/>
  <circle cx="8" cy="8.3" r="2.05" fill="none" stroke="context-fill" stroke-width="1.4"/>
</svg>
